<svg width="48" height="48" version="1.1" viewBox="0 0 12.7 12.7" xmlns="http://www.w3.org/2000/svg" xmlns:xlink="http://www.w3.org/1999/xlink">
    <defs>
        <linearGradient id="linearGradient3" x1="3.2" x2="18" y2="24" gradientTransform="matrix(.47673 0 0 .4648 -10.583168 6.3496671)" gradientUnits="userSpaceOnUse">
            <stop stop-color="#5d5f61" offset="0"/>
            <stop stop-color="#2d3033" offset="1"/>
        </linearGradient>
        <linearGradient id="linearGradient5" x1="8.7283783" x2="3.949542" y1="10.259839" y2="1.9826522" gradientTransform="translate(-.00029158905 .17461453)" gradientUnits="userSpaceOnUse">
            <stop stop-color="#c8c8c8" offset="0"/>
            <stop stop-color="#fff" offset="1"/>
        </linearGradient>
        <linearGradient id="linearGradient18" x1="8.4360619" x2="2.5002193" y1="10.014347" y2="-.26683408" gradientTransform="translate(-.00029158905 .17461453)" gradientUnits="userSpaceOnUse">
            <stop stop-color="#2d2d2d" offset="0"/>
            <stop stop-color="#2d2d2d" stop-opacity="0" offset="1"/>
        </linearGradient>
    </defs>
    <g transform="translate(11.642,-5.2916669)">
        <path d="m-9.2606672 16.93367a1.32 1.32 0 0 1-1.3230008-1.323v-3.969002h10.584v3.969002a1.32 1.32 0 0 1-1.322999 1.323z" fill="#212325" stroke-width=".470411"/>
        <path d="m-9.2606672 6.349667a1.32 1.32 0 0 0-1.3230008 1.323v3.969001h10.584v-3.969001a1.32 1.32 0 0 0-1.322999-1.323h-7.939z" fill="#939598" stroke-width=".470411"/>
        <rect x="-10.583165" y="6.6146669" width="10.583" height="10.054" rx="1.323" ry="1.323" fill="url(#linearGradient3)" stroke-width=".470729"/>
        <g transform="matrix(1.5504886,0,0,1.5504886,-13.769959,4.2162026)">
            <g transform="matrix(.97726686 0 0 .97726686 .12460823 .19679386)">
                <path d="m4.9434779 2.4291541c-0.065676 0-0.1191029 0.048886-0.1295968 0.1101573l-0.0985618 0.6940251c-0.1595157 0.066792-0.3076472 0.1535029-0.4423344 0.2578295l-0.6527588-0.2629451c-0.059064-0.022079-0.127042-3.16e-5 -0.1596087 0.056272l-0.4416523 0.7653033-0.099244-0.1425565-3.411e-4 0.3505936 3.411e-4 -0.00102c5.77e-5 0.038632 0.017209 0.076328 0.048769 0.1023133l0.5518097 0.4338083c-0.010437 0.083904-0.018075 0.1691197-0.018075 0.2557833 0 0.086664 0.00765 0.1711999 0.018075 0.2551011l-0.4986064 0.391857-0.1023133-0.199852v0.3430906l3.411e-4 -3.411e-4c-8.37e-5 0.022369 0.00548 0.045308 0.017393 0.066504l0.523503 0.9071778c0.032567 0.056302 0.1011103 0.080009 0.1596087 0.056272l0.652759-0.2629452c0.1346894 0.103222 0.2828103 0.1910388 0.4423344 0.2578295l0.098562 0.6940251c0.010437 0.061821 0.063901 0.1101573 0.1295968 0.1101573h1.0476879c0.065696 0 0.1191028-0.048886 0.1295968-0.1101573l0.0982208-0.6940251c0.1595367-0.0667919 0.3083312-0.153503 0.4430165-0.2578295l0.6520767 0.2629451c0.059063 0.022079 0.1270419 2.93e-5 0.1596087-0.056272l0.523844-0.9071778c0.012274-0.021219 0.01782-0.044316 0.017393-0.067186l0.00171 0.00102v-0.3430874l-0.1026589 0.200534-0.4986067-0.3925419c0.010437-0.083904 0.018075-0.1684396 0.018075-0.2551011 0-0.086664-0.00765-0.1718798-0.018075-0.2557833l0.5518097-0.4338083c0.032143-0.025359 0.049031-0.063697 0.048428-0.1033364l0.00102 0.00205-3.411e-4 -0.3505936-0.099244 0.1425565 0.00205 0.00409-0.4443809-0.769397c-0.0325665-0.0563042-0.1007687-0.0800078-0.1592677-0.0562723l-0.6524177 0.2629451c-0.134685-0.1032223-0.2834902-0.1910384-0.4430165-0.2578295l-0.0982208-0.6940251c-0.0115994-0.0618224-0.0654847-0.1101573-0.1306199-0.1101573zm0.5252082 1.702152c0.5067268 0 0.9170681 0.4106815 0.9170681 0.9174092 0 0.5067275-0.4103413 0.916727-0.9170681 0.916727-0.5067287 0-0.916727-0.4099995-0.916727-0.916727 0-0.5067277 0.4099983-0.9174092 0.916727-0.9174092z" fill="url(#linearGradient18)" stroke-width=".551992"/>
                <path d="m4.9434779 2.0799248c-0.065676 0-0.1191029 0.048885-0.1295968 0.1101573l-0.0985618 0.6940251c-0.1595159 0.0667919-0.307647 0.1535028-0.4423344 0.2578295l-0.6527588-0.2629452c-0.059064-0.022079-0.127042-3.15e-5 -0.1596087 0.056272l-0.523503 0.9071778c-0.032567 0.056304-0.018235 0.1266059 0.031376 0.1674528l0.5518097 0.4338083c-0.010437 0.083904-0.018075 0.1691197-0.018075 0.2557832 0 0.086664 0.00765 0.1711998 0.018075 0.2551011l-0.5518096 0.4338087c-0.049674 0.039191-0.063943 0.1094942-0.031376 0.1674527l0.523503 0.9071778c0.032567 0.056302 0.1011102 0.080009 0.1596087 0.056272l0.6527587-0.2629448c0.1346896 0.1032221 0.2828101 0.1910388 0.4423344 0.2578294l0.098562 0.6940252c0.010437 0.061821 0.063901 0.1101573 0.1295968 0.1101573h1.0476879c0.065696 0 0.1191028-0.048886 0.1295968-0.1101573l0.0982208-0.6940252c0.1595369-0.0667918 0.3083311-0.1535028 0.4430165-0.2578294l0.6520767 0.2629451c0.059063 0.022079 0.1270419 2.92e-5 0.1596087-0.056272l0.523844-0.9071781c0.032567-0.0563018 0.0182359-0.1266058-0.0313761-0.1674527l-0.5507865-0.4338084c0.010437-0.083904 0.018075-0.1684395 0.018075-0.2551011 0-0.086664-0.00765-0.1718798-0.018075-0.2557832l0.5518097-0.4338083c0.049674-0.039191 0.063943-0.1094943 0.031376-0.1674528l-0.523844-0.9071778c-0.0325665-0.0563041-0.1007687-0.0800077-0.1592677-0.0562723l-0.6524177 0.2629452c-0.1346852-0.1032224-0.28349-0.1910385-0.4430165-0.2578295l-0.0982208-0.6940251c-0.0115995-0.0618226-0.0654846-0.1101573-0.1306199-0.1101573zm0.5238441 1.7461467c0.4882629 0 0.8740965 0.3848097 0.8740965 0.8730734 0 0.4882638-0.3858336 0.8730733-0.8740965 0.8730733-0.4882648 0-0.8730734-0.3848095-0.8730734-0.8730733 0-0.4882637 0.3848086-0.8730734 0.8730734-0.8730734z" fill="url(#linearGradient5)" stroke-width=".551992"/>
                <g stroke-width="17.937">
                    <path d="m5.469142 3.4739266c-0.6782013 0-1.2241233 0.545922-1.2241233 1.2241233v0.00219c0 0.6782014 0.545922 1.2241234 1.2241233 1.2241234 0.6782012 0 1.2241232-0.545922 1.2241232-1.2241234v-0.00219c0-0.6782013-0.545922-1.2241233-1.2241232-1.2241233zm-0.00182 0.3521449c0.4882634 0 0.8742427 0.3848092 0.8742427 0.8730734 0 0.4882643-0.3859793 0.8730733-0.8742427 0.8730733-0.4882652 0-0.8730734-0.384809-0.8730734-0.8730733 0-0.4882642 0.3848082-0.8730734 0.8730734-0.8730734z" fill="#3daee9" opacity=".648579" style="paint-order:stroke markers fill"/>
                    <path d="m5.1518195 3.5150848c-0.6550908 0.1755311-1.0409471 0.844336-0.865416 1.4994268-0.1500972-0.5601703 0.2563132-1.1522662 0.911404-1.3277972 0.6550907-0.175531 1.3034299 0.1339455 1.4535271 0.6941158-0.175531-0.6550908-0.8444244-1.0412764-1.4995151-0.8657454z" fill="#fff" opacity=".4" style="paint-order:stroke markers fill"/>
                    <path d="m5.7828232 5.8832045c0.6550908-0.1755311 1.0409471-0.844336 0.865416-1.4994268 0.1500972 0.5601703-0.2563132 1.1522662-0.911404 1.3277972-0.6550907 0.175531-1.3034299-0.1339455-1.4535271-0.6941158 0.175531 0.6550908 0.8444244 1.0412764 1.4995151 0.8657454z" opacity=".25" style="paint-order:stroke markers fill"/>
                </g>
            </g>
        </g>
    </g>
</svg>
